<svg width="104" height="126" viewBox="0 0 104 126" fill="none" xmlns="http://www.w3.org/2000/svg">
<path d="M3.42178 20.5662L3.42318 20.5657L51.5232 2.58989L51.5332 2.5861C51.8381 2.47065 52.1686 2.47253 52.4622 2.58434L52.4695 2.58713L52.4768 2.58987L100.577 20.5657L100.578 20.5662C101.126 20.7705 101.5 21.2953 101.5 21.9146V63.9194C101.5 86.7852 89.4679 101.571 77.1921 110.761C71.0443 115.363 64.8667 118.532 60.1889 120.557C57.8534 121.569 55.9009 122.291 54.5255 122.763C53.8381 122.998 53.2957 123.171 52.9227 123.285C52.7331 123.343 52.5889 123.386 52.4928 123.414L52 123.478L51.5073 123.414C51.4113 123.386 51.2671 123.343 51.0775 123.285C50.7045 123.171 50.1621 122.998 49.4746 122.763C48.0993 122.291 46.1468 121.568 43.8113 120.557C39.1335 118.53 32.9558 115.362 26.808 110.759C14.5321 101.569 2.5 86.7825 2.5 63.9194V21.9146C2.5 21.2953 2.87425 20.7705 3.42178 20.5662Z" fill="#0E0F37" stroke="url(#paint0_linear)" stroke-width="5"/>
<path d="M27.791 44.0431H47.5204C47.6908 44.0431 47.8045 44.1145 47.8613 44.2574C47.9465 44.3718 47.9323 44.5004 47.8187 44.6433L44.6654 48.8017C44.2961 49.259 43.8273 49.4877 43.2592 49.4877H32.734V56.347H43.387C43.7279 56.347 43.8984 56.5185 43.8984 56.8615V61.2343C43.8984 61.6058 43.7279 61.7916 43.387 61.7916H32.734V73.5382C32.734 73.8812 32.5494 74.0527 32.18 74.0527H27.791C27.649 74.0527 27.5211 74.0098 27.4075 73.924C27.3223 73.8097 27.2797 73.6811 27.2797 73.5382V44.5575C27.2797 44.4146 27.3223 44.3003 27.4075 44.2146C27.5211 44.1002 27.649 44.0431 27.791 44.0431Z" fill="url(#paint1_linear)"/>
<path d="M50.0142 58.9193C50.0142 56.7185 50.4119 54.675 51.2073 52.7887C52.0312 50.9024 53.1249 49.259 54.4884 47.8586C55.8804 46.4581 57.5139 45.3721 59.3888 44.6004C61.2638 43.8001 63.2807 43.4143 65.4397 43.4429C67.7408 43.4715 69.8572 43.943 71.7889 44.8576C73.7491 45.7722 75.4394 47.0297 76.8598 48.6303C76.945 48.7446 76.9734 48.8732 76.945 49.0161C76.945 49.159 76.8882 49.2733 76.7745 49.3591L73.4082 52.2314C73.2946 52.3171 73.1667 52.36 73.0247 52.36C72.8826 52.3314 72.769 52.26 72.6838 52.1457C71.7463 51.0596 70.6384 50.2022 69.36 49.5734C68.0817 48.9161 66.7039 48.6017 65.2267 48.6303C63.8915 48.6588 62.6273 48.9589 61.4342 49.5305C60.2411 50.0736 59.2042 50.831 58.3235 51.8027C57.4429 52.7459 56.7469 53.8462 56.2355 55.1037C55.7242 56.3613 55.4685 57.7046 55.4685 59.1336C55.4685 60.5626 55.7384 61.9059 56.2782 63.1635C56.8179 64.421 57.5423 65.5214 58.4514 66.4645C59.3604 67.4077 60.4115 68.1508 61.6047 68.6938C62.7978 69.2082 64.0762 69.4655 65.4397 69.4655C66.8601 69.4369 68.1953 69.1082 69.4453 68.4794C70.6952 67.8507 71.7747 66.9933 72.6838 65.9072C72.769 65.7929 72.8826 65.7357 73.0247 65.7357C73.1667 65.7071 73.2946 65.75 73.4082 65.8643L76.7745 68.7367C76.8882 68.8224 76.945 68.9367 76.945 69.0796C76.9734 69.2225 76.945 69.3512 76.8598 69.4655C75.411 71.0946 73.6923 72.3807 71.7037 73.3238C69.7151 74.2384 67.5419 74.6814 65.1841 74.6528C63.0535 74.6528 61.0507 74.2527 59.1758 73.4525C57.3292 72.6236 55.7242 71.509 54.3606 70.1085C52.997 68.6795 51.9317 67.0075 51.1647 65.0927C50.3977 63.1778 50.0142 61.12 50.0142 58.9193Z" fill="url(#paint2_linear)"/>
<defs>
<linearGradient id="paint0_linear" x1="19.5699" y1="14.9032" x2="64.8183" y2="120.508" gradientUnits="userSpaceOnUse">
<stop stop-color="#07F5CD"/>
<stop offset="1" stop-color="#00E676"/>
</linearGradient>
<linearGradient id="paint1_linear" x1="36.6273" y1="47.1332" x2="43.1839" y2="76.6393" gradientUnits="userSpaceOnUse">
<stop stop-color="#07F5CD"/>
<stop offset="1" stop-color="#00E676"/>
</linearGradient>
<linearGradient id="paint2_linear" x1="36.6273" y1="47.1332" x2="43.1839" y2="76.6393" gradientUnits="userSpaceOnUse">
<stop stop-color="#07F5CD"/>
<stop offset="1" stop-color="#00E676"/>
</linearGradient>
</defs>
</svg>
